<?xml version="1.0" encoding="utf-8"?>
<!-- Generator: Adobe Illustrator 26.0.3, SVG Export Plug-In . SVG Version: 6.00 Build 0)  -->
<svg version="1.1" id="Layer_1" xmlns="http://www.w3.org/2000/svg" xmlns:xlink="http://www.w3.org/1999/xlink" x="0px" y="0px"
	 viewBox="0 0 1250.1 345.8" style="enable-background:new 0 0 1250.1 345.8;" xml:space="preserve">
<style type="text/css">
	.st0{fill:#EFC329;}
	.st1{fill:#DE6E26;}
	.st2{fill:#4DACB6;}
	.st3{fill:#BC2C26;}
	.st4{fill:#153634;}
</style>
<ellipse transform="matrix(4.531442e-02 -0.999 0.999 4.531442e-02 -213.6698 346.0182)" class="st0" cx="74.2" cy="284.8" rx="37.4" ry="37.4"/>
<circle class="st1" cx="75.7" cy="60.6" r="37.4"/>
<circle class="st0" cx="186.5" cy="33.5" r="27"/>
<circle class="st1" cx="186.5" cy="312.3" r="27"/>
<circle class="st2" cx="39.5" cy="172.9" r="27"/>
<circle class="st3" cx="281.3" cy="268" r="16.7"/>
<path class="st4" d="M188.4,172.7c-2.2-0.1-4.5,0.5-6.3,1.8c-1.6,1.1-2.9,2.6-3.8,4.3v5.7c0,10.4,3.6,15.6,10.8,15.6
	c2.9,0,5.7-1.5,7.3-3.9c2-2.9,3-6.3,2.9-9.8c0.1-3.5-0.9-7-3-9.9C194.4,174.1,191.4,172.6,188.4,172.7z"/>
<path class="st4" d="M118.8,164.5c7.1,0,10.7-3.5,10.7-10.5c0.1-2.5-0.8-4.9-2.6-6.7c-1.9-1.8-4.5-2.7-7.2-2.6
	c-2.4,0-4.7,0.7-6.6,2.2c-1.8,1.3-2.8,3.3-2.8,5.5H94c-1.5,6.7-2.2,13.5-2.2,20.4c0,6,0.6,12,1.7,17.9h15.7c0,2.5,1.1,4.9,3,6.6
	c2.1,1.9,4.8,2.8,7.5,2.8c2.9,0.1,5.8-0.9,8-2.8c2-1.8,3.1-4.5,3-7.2c0-4.2-1-7.1-3.1-8.8s-4.9-2.6-8.6-2.6h-9.3v-14.2H118.8z"/>
<path class="st4" d="M255.1,144.9c-3-0.2-5.8,1.4-7.2,4.1c-1.5,2.7-2.3,6.8-2.4,12.3v21c0,6.2,0.8,10.7,2.3,13.5
	c1.4,2.8,4.3,4.4,7.3,4.3c3,0.1,5.8-1.5,7.2-4.2c1.5-2.8,2.3-7.1,2.4-13v-20.4c0-5.9-0.8-10.3-2.3-13.3
	C261.1,146.5,258.2,144.7,255.1,144.9z"/>
<path class="st4" d="M255.2,214.8c-9.2,0-16.3-3-21.3-9.1s-7.5-14.6-7.5-25.7v-15c0-11.1,2.5-19.7,7.5-25.8c5-6,12.1-9.1,21.2-9.1
	c8,0,14.4,2.3,19.3,7c-19.7-48.5-75-71.8-123.5-52c-23.4,9.5-42,28-51.7,51.4c1.8-1.4,3.8-2.6,5.9-3.6c4.5-1.9,9.3-2.9,14.1-2.9
	c9.2,0,16.4,2.1,21.6,6.3c5.2,4.2,7.9,9.9,7.9,17.3c0,3.6-1.2,7.1-3.3,10c-2.4,3.4-5.7,6-9.5,7.7c4.1,1.4,7.6,3.9,10.3,7.2
	c2.6,3.5,3.9,7.7,3.7,12c0.2,6.9-3,13.5-8.5,17.7c-5.7,4.4-13.1,6.6-22.3,6.6c-5.2,0-10.3-1-15-3.1c-1.8-0.8-3.6-1.8-5.2-3
	c19.8,48.4,75.2,71.6,123.6,51.8c24-9.8,42.9-29,52.3-53.1C270,212.4,263.4,214.8,255.2,214.8z M214.7,200.8
	c-2.4,4.3-6,7.9-10.4,10.3c-4.5,2.5-9.6,3.8-14.7,3.7c-5.5,0.1-10.9-1.3-15.7-4c-4.6-2.7-8.3-6.6-10.8-11.4c-2.7-5.3-4-11.2-4-17.1
	v-7.6c-0.1-8,1.8-15.8,5.5-22.9c3.6-6.7,9-12.2,15.6-15.9c6.8-3.9,14.6-5.9,22.5-5.8h2.9v15h-0.8c-7.1,0-13,1.7-17.6,5.1
	c-4.6,3.4-7.6,8.5-8.5,14.2c4.3-4.2,10.2-6.5,16.3-6.3c7.1,0,12.8,2.6,17,7.8s6.3,12,6.3,20.5C218.4,191.5,217.1,196.4,214.7,200.8
	L214.7,200.8z"/>
<path class="st4" d="M554.6,137.4h-11.2V126h11.2V137.4z M554.6,214.3h-11.2v-61.2h11.2V214.3z"/>
<path class="st4" d="M493.3,213.2c-0.8-2.1-1.3-4.2-1.5-6.4c-4.5,4.9-10.8,7.6-17.4,7.6c-6,0-11-1.7-14.9-5.1c-3.8-3.2-5.9-8-5.8-13
	c0-6.4,2.4-11.3,7.3-14.9s11.7-5.3,20.5-5.3h10.2v-4.8c0.2-3.2-1-6.4-3.3-8.7c-2.2-2.2-5.4-3.3-9.7-3.2c-3.4-0.1-6.7,0.9-9.4,2.8
	c-2.3,1.5-3.7,4.1-3.8,6.8H455c0.1-3.2,1.2-6.3,3.3-8.9c2.3-3,5.4-5.3,8.8-6.8c3.9-1.7,8-2.5,12.3-2.5c7,0,12.6,1.8,16.6,5.3
	s6.1,8.4,6.2,14.6v28.2c0,5.6,0.7,10.1,2.2,13.4v0.9L493.3,213.2z M476,205.2c3.3,0,6.5-0.9,9.3-2.6c2.8-1.5,5-3.8,6.4-6.6v-12.5
	h-8.2c-12.8,0-19.2,3.8-19.2,11.3c-0.2,2.9,1.1,5.8,3.3,7.7C469.9,204.3,472.9,205.3,476,205.2L476,205.2z"/>
<path class="st4" d="M529.1,214.3h-10.5v-86.9h10.5V214.3z"/>
<path class="st4" d="M1186,182c0-9.4,2.2-16.9,6.7-22.7c4.1-5.5,10.6-8.7,17.5-8.6c7.2,0,12.8,2.5,17,7.4v-31.9h10.5v86.9h-9.6
	l-0.5-6.6c-4.2,5.1-10,7.7-17.5,7.7c-6.9,0.1-13.3-3.1-17.3-8.7c-4.4-5.8-6.7-13.4-6.7-22.8L1186,182L1186,182z M1196.5,183.2
	c0,7,1.4,12.4,4.3,16.3c2.7,3.9,7.2,6.1,11.9,5.9c6.7,0,11.5-3,14.6-8.9v-28.1c-3.1-5.8-8-8.7-14.4-8.7c-4.7-0.2-9.3,2.1-12,5.9
	C1197.9,169.6,1196.5,175.4,1196.5,183.2L1196.5,183.2z"/>
<path class="st4" d="M1020.8,181.9c-0.1-5.6,1.1-11.2,3.5-16.2c2.2-4.6,5.6-8.4,9.8-11.1c4.3-2.6,9.3-4,14.4-3.9
	c8.3,0,15.1,2.9,20.2,8.7c5.2,5.8,7.7,13.4,7.7,23v0.7c0.1,5.6-1.1,11.1-3.4,16.1c-2.1,4.6-5.5,8.4-9.8,11.1
	c-4.4,2.7-9.5,4.1-14.6,4c-8.3,0-15-2.9-20.2-8.7c-5.2-5.8-7.7-13.4-7.7-22.9L1020.8,181.9z M1031.4,183.2c0,6.8,1.6,12.2,4.7,16.4
	c5.4,7,15.5,8.2,22.5,2.8c1.1-0.8,2-1.8,2.9-2.9c3.1-4.2,4.7-10,4.7-17.5c0-6.7-1.6-12.2-4.8-16.3c-2.9-4-7.7-6.4-12.7-6.2
	c-4.9-0.1-9.6,2.2-12.5,6.2C1033,169.7,1031.4,175.5,1031.4,183.2L1031.4,183.2z"/>
<path class="st4" d="M430.3,207.1c-4.1,4.8-10.1,7.2-17.9,7.2c-6.5,0-11.5-1.9-14.9-5.7s-5.1-9.4-5.2-16.8v-39.9h10.5v39.6
	c0,9.3,3.8,13.9,11.3,13.9c8,0,13.3-3,16-8.9v-44.6h10.4v61.2h-10L430.3,207.1z"/>
<path class="st4" d="M1180.1,162.4c-1.7-0.3-3.4-0.4-5.2-0.4c-6.9,0-11.5,2.9-14,8.8v43.5h-10.4v-61.2h10.2l0.2,7.1
	c3.4-5.5,8.3-8.2,14.6-8.2c1.6-0.1,3.2,0.2,4.6,0.8L1180.1,162.4L1180.1,162.4z"/>
<path class="st4" d="M871.4,196.9c0.1-2.6-1.1-5.1-3.2-6.6c-2.1-1.6-5.8-2.9-11.2-4.1c-4.4-0.8-8.6-2.2-12.6-4.1
	c-2.7-1.3-5.1-3.2-6.9-5.7c-1.5-2.3-2.3-5-2.2-7.8c0-5,2.1-9.3,6.4-12.7c4.2-3.5,9.7-5.2,16.3-5.2c6.9,0,12.6,1.8,16.9,5.4
	c4.2,3.3,6.6,8.4,6.5,13.8h-10.5c0-2.9-1.4-5.6-3.7-7.4c-2.6-2.1-5.9-3.2-9.2-3.1c-3.8,0-6.8,0.8-8.9,2.5c-2.1,1.5-3.3,3.9-3.2,6.5
	c-0.1,2.3,1,4.5,3,5.7c2,1.3,5.6,2.5,10.8,3.7c4.4,0.9,8.7,2.3,12.7,4.2c2.9,1.3,5.3,3.3,7.2,5.9c1.6,2.5,2.4,5.4,2.3,8.4
	c0.1,5.2-2.3,10.1-6.6,13.2c-4.4,3.3-10,5-17,5c-4.5,0.1-8.9-0.8-13-2.6c-3.6-1.6-6.6-4.1-8.8-7.3c-2.1-3-3.2-6.5-3.2-10.1h10.5
	c0.1,3.3,1.6,6.3,4.2,8.4c2.6,2.1,6,3.1,10.3,3.1c4,0,7.1-0.8,9.5-2.4C870,202,871.4,199.5,871.4,196.9z"/>
<path class="st4" d="M632.6,197.7l14.3-45.9h11.2l-24.6,70.7c-3.8,10.2-9.9,15.3-18.2,15.3l-2-0.2l-3.9-0.7v-8.5l2.8,0.2
	c3.6,0,6.3-0.7,8.3-2.2s3.6-4.1,4.9-7.9l2.3-6.2l-21.8-60.6h11.4L632.6,197.7z"/>
<path class="st4" d="M904.7,160.5c4.3-5.6,11-8.7,18.1-8.6c12.9,0,19.5,7.3,19.6,21.9v40.5h-10.5v-40.5c0-4.4-1-7.7-3-9.8
	s-5-3.2-9.2-3.2c-3.2-0.1-6.3,0.9-8.9,2.7c-2.6,1.8-4.6,4.3-6,7.1v43.6h-10.5v-86.9h10.5L904.7,160.5L904.7,160.5z"/>
<path class="st4" d="M585.2,137.1v14.8h11.4v8.1h-11.4v38c-0.1,2,0.4,3.9,1.5,5.5c1,1.2,2.8,1.8,5.2,1.8c1.7-0.1,3.4-0.3,5-0.7v8.4
	c-2.6,0.7-5.3,1.1-8,1.1c-4.7,0-8.2-1.4-10.6-4.2c-2.4-2.8-3.6-6.8-3.6-12.1v-38h-11.2v-8.1h11.2v-14.8h10.5V137.1z"/>
<path class="st4" d="M812.4,213.2c-0.8-2.1-1.3-4.2-1.5-6.4c-4.5,4.9-10.8,7.6-17.4,7.6c-6,0-11-1.7-14.9-5.1c-3.8-3.2-5.9-8-5.8-13
	c0-6.4,2.4-11.3,7.3-14.9s11.7-5.3,20.5-5.3h10.2v-4.8c0.2-3.2-1-6.4-3.3-8.7c-2.2-2.2-5.4-3.3-9.7-3.2c-3.4-0.1-6.7,0.9-9.4,2.8
	c-2.3,1.5-3.7,4.1-3.8,6.8h-10.5c0.1-3.2,1.2-6.3,3.3-8.9c2.3-3,5.4-5.3,8.8-6.8c3.9-1.7,8-2.5,12.2-2.5c7,0,12.6,1.8,16.6,5.3
	s6.1,8.4,6.2,14.6v28.2c0,5.6,0.7,10.1,2.2,13.4v0.9L812.4,213.2z M795,205.2c3.3,0,6.5-0.9,9.3-2.6c2.8-1.5,5-3.8,6.4-6.6v-12.5
	h-8.2c-12.8,0-19.2,3.8-19.2,11.3c-0.2,2.9,1.1,5.8,3.3,7.7C788.9,204.3,791.9,205.3,795,205.2L795,205.2z"/>
<path class="st4" d="M1125,213.2c-0.8-2.1-1.3-4.2-1.5-6.4c-4.5,4.9-10.8,7.6-17.4,7.6c-6,0-11-1.7-14.9-5.1c-3.8-3.2-5.9-8-5.8-13
	c0-6.4,2.4-11.3,7.3-14.9s11.7-5.3,20.5-5.3h10.2v-4.8c0.2-3.2-1-6.4-3.3-8.7c-2.2-2.2-5.4-3.3-9.7-3.2c-3.4-0.1-6.7,0.9-9.4,2.8
	c-2.3,1.5-3.7,4.1-3.8,6.8h-10.5c0.1-3.2,1.2-6.3,3.3-8.9c2.3-3,5.4-5.3,8.8-6.8c3.9-1.7,8-2.5,12.2-2.5c7,0,12.6,1.8,16.6,5.3
	s6.1,8.4,6.2,14.6v28.2c0,5.6,0.7,10.1,2.2,13.4v0.9L1125,213.2z M1107.6,205.2c3.3,0,6.5-0.9,9.3-2.6c2.8-1.5,5-3.8,6.4-6.6v-12.5
	h-8.2c-12.8,0-19.2,3.8-19.2,11.3c-0.2,2.9,1.1,5.8,3.3,7.7C1101.6,204.3,1104.6,205.3,1107.6,205.2L1107.6,205.2z"/>
<path class="st4" d="M378.5,174.2c0,8.2-1.3,15.3-3.9,21.3s-6.3,10.6-11,14l15.2,12l-7.7,7.1l-18-14.3c-2.8,0.7-5.8,1.1-8.9,1.1
	c-6.7,0-12.7-1.6-17.9-5c-5.2-3.3-9.2-8-12.1-14.1s-4.3-13.2-4.4-21.2v-6.2c0-8.2,1.4-15.4,4.3-21.7s6.9-11.1,12.1-14.4
	c5.2-3.3,11.2-5,17.9-5c6.9,0,12.9,1.7,18.1,5c5.2,3.3,9.2,8.1,12,14.3s4.2,13.5,4.2,21.8L378.5,174.2L378.5,174.2z M367.3,168.7
	c0-10-2-17.8-6-23.2s-9.7-8.2-17.1-8.2c-7.1,0-12.6,2.7-16.7,8.1c-4.1,5.4-6.2,12.9-6.3,22.5v6.3c0,9.8,2,17.5,6.1,23.1
	s9.8,8.4,17,8.4s12.9-2.6,16.9-7.9c4-5.3,6-12.9,6.2-22.8v-6.3H367.3z"/>
<path class="st4" d="M698.6,214.1v-85.3h24.1c7.4,0,14,1.6,19.7,4.9c5.7,3.3,10.1,7.9,13.2,14c3.1,6.1,4.7,13,4.7,20.9v5.4
	c0,8-1.6,15.1-4.7,21.2c-3.1,6.1-7.5,10.7-13.3,13.9s-12.5,4.9-20.1,5L698.6,214.1L698.6,214.1z M709.9,138v66.9h11.8
	c8.7,0,15.4-2.7,20.2-8.1c4.8-5.4,7.2-13.1,7.2-23v-5c0-9.7-2.3-17.2-6.8-22.6c-4.6-5.4-11-8.1-19.4-8.2L709.9,138L709.9,138z"/>
<path class="st4" d="M1010.6,183.1c0,9.7-2.2,17.5-6.7,23.3c-4.5,5.9-10.4,8.8-17.9,8.8c-8,0-14.2-2.8-18.6-8.5l-0.5,7.3h-10v-90
	h10.8v33.6c4.4-5.4,10.4-8.1,18.1-8.1c7.7,0,13.7,2.9,18.1,8.7c4.4,5.8,6.6,13.8,6.6,23.9v1H1010.6z M999.8,181.9
	c0-7.4-1.4-13.1-4.3-17.1c-2.9-4-7-6-12.3-6c-7.1,0-12.3,3.3-15.4,10v27.4c3.3,6.6,8.5,10,15.5,10c5.2,0,9.2-2,12.1-6
	C998.3,196,999.8,190,999.8,181.9z"/>
</svg>
